<?xml version="1.0" standalone="no"?>
<!DOCTYPE svg PUBLIC "-//W3C//DTD SVG 20010904//EN"
 "http://www.w3.org/TR/2001/REC-SVG-20010904/DTD/svg10.dtd">
<svg version="1.0" xmlns="http://www.w3.org/2000/svg"
 width="1000.000000pt" height="1000.000000pt" viewBox="0 0 1000.000000 1000.000000"
 preserveAspectRatio="xMidYMid meet">
<metadata>
Created by potrace 1.12, written by Peter Selinger 2001-2015
</metadata>
<g transform="translate(0.000000,1000.000000) scale(0.100000,-0.100000)"
fill="#000000" stroke="none">
<path d="M4196 9968 c-2 -18 -12 -86 -21 -152 -45 -328 -164 -647 -335 -897
-166 -243 -218 -299 -424 -456 -169 -129 -227 -179 -289 -252 -55 -64 -113
-176 -123 -238 l-7 -43 -94 0 c-135 0 -272 -22 -553 -90 -347 -84 -391 -90
-685 -90 -259 0 -352 7 -516 40 -448 91 -832 312 -1101 633 l-48 58 0 -2246 0
-2246 153 154 c226 228 437 399 776 626 217 146 342 224 347 218 3 -2 -1 -87
-7 -188 -27 -423 10 -944 93 -1302 l20 -88 -80 -122 c-278 -428 -484 -916
-686 -1627 l-64 -225 -7 120 c-3 66 -9 127 -11 136 -8 28 -266 284 -329 326
-64 43 -178 103 -195 103 -7 0 -10 -340 -10 -1060 l0 -1060 1084 0 1083 0 76
108 c74 106 214 335 296 484 24 43 44 78 44 78 1 0 34 -9 72 -20 177 -51 433
-65 616 -34 114 20 270 70 384 123 l85 40 0 -72 c-1 -181 -63 -454 -149 -650
-12 -27 -21 -51 -21 -53 0 -2 421 -4 935 -4 904 0 937 1 1021 20 48 11 225 45
392 76 598 108 791 158 1063 279 56 25 103 44 104 43 2 -2 -6 -79 -16 -173
-10 -93 -18 -187 -19 -207 l0 -38 1475 0 1475 0 0 908 0 909 -132 22 c-144 23
-420 61 -447 61 -14 0 -20 -39 -45 -287 -15 -159 -31 -298 -34 -311 -6 -19
-39 17 -242 270 -142 177 -234 301 -234 313 1 11 28 79 62 150 178 384 274
771 304 1227 l12 178 75 -41 c173 -92 372 -237 574 -415 l107 -95 0 119 0 118
-172 126 c-95 69 -213 151 -263 183 -101 63 -268 147 -333 166 -36 10 -43 17
-52 48 -32 121 -143 642 -138 646 2 1 66 48 142 105 l139 102 -6 178 c-10 284
-47 479 -121 635 -18 39 -88 167 -155 285 -175 307 -294 563 -318 682 l-6 30
44 -7 c188 -31 759 -221 1187 -394 l52 -21 0 220 0 220 -52 72 c-102 143 -227
340 -233 367 -14 66 26 103 160 147 128 42 125 39 125 148 l0 93 -347 -85
c-192 -46 -351 -88 -356 -91 -4 -4 29 -47 74 -97 110 -121 260 -308 344 -429
78 -111 227 -356 221 -363 -7 -7 -238 63 -591 178 -313 102 -554 172 -697 200
l-57 11 -65 103 c-158 248 -367 505 -625 768 l-173 177 18 25 c11 13 39 47 62
75 24 28 41 51 38 51 -3 0 -70 -21 -148 -46 -185 -59 -224 -55 -325 39 -40 37
-157 190 -169 221 -5 13 27 30 211 114 376 170 714 280 1025 332 158 27 446
37 590 21 223 -24 588 -101 841 -176 64 -19 119 -35 123 -35 3 0 6 47 6 105 0
58 -3 105 -6 105 -3 0 -175 33 -382 74 -496 98 -552 107 -782 113 -401 11
-653 -47 -1180 -274 -135 -58 -260 -112 -278 -120 l-34 -14 7 43 c47 302 155
600 339 938 41 75 133 237 206 360 139 237 290 504 290 514 0 3 -29 6 -63 6
l-64 0 -90 -137 c-288 -440 -531 -927 -844 -1692 -44 -107 -84 -202 -89 -211
-9 -16 -26 -13 -202 44 l-193 62 2 135 c6 317 70 711 168 1033 70 231 190 502
304 686 45 72 48 80 29 80 -13 0 -48 -29 -94 -77 -328 -342 -500 -859 -521
-1565 -3 -115 -8 -208 -11 -208 -3 0 -57 9 -121 20 -519 88 -1084 84 -1596
-11 -174 -32 -412 -94 -588 -153 l-162 -55 -243 243 -243 242 71 80 c160 177
314 401 421 610 133 262 207 513 243 827 l6 47 -50 0 c-48 0 -49 -1 -54 -32z
m-903 -1781 c45 -69 85 -147 109 -217 41 -118 32 -307 -15 -332 -43 -22 -554
-362 -669 -444 -64 -46 -121 -84 -128 -84 -33 0 -311 210 -474 358 -32 29 -62
52 -66 50 -5 -2 -119 -122 -254 -268 -136 -146 -251 -264 -256 -263 -5 2 -88
60 -185 129 -114 81 -175 131 -171 139 3 8 67 97 143 198 l138 184 205 6 c219
6 281 13 486 53 l131 26 47 -36 c106 -81 263 -133 371 -122 33 3 83 12 112 21
48 14 55 20 95 88 24 39 49 84 55 99 19 43 58 62 124 61 l57 -2 -1 117 c-2
139 11 194 60 252 19 22 38 40 42 40 5 0 24 -24 44 -53z m2822 -166 c190 -23
434 -63 541 -89 61 -16 99 -37 273 -152 176 -118 201 -137 201 -160 0 -24 7
-29 83 -54 371 -125 679 -386 1016 -860 87 -123 381 -578 381 -590 0 -11 -471
231 -540 276 -91 60 -189 155 -280 274 -44 57 -146 167 -227 246 -251 244
-418 411 -455 457 l-35 44 -52 -76 c-28 -42 -51 -78 -51 -81 0 -3 93 -96 206
-208 204 -201 205 -203 177 -212 -46 -14 -457 -13 -543 2 -248 45 -474 128
-667 247 -24 14 -43 23 -43 19 0 -4 48 -117 106 -252 58 -134 103 -246 99
-250 -4 -4 -43 -9 -88 -10 -138 -6 -218 24 -516 193 -131 74 -237 113 -335
122 l-67 6 36 -79 c58 -126 125 -291 162 -399 37 -111 76 -255 70 -261 -2 -2
-118 52 -258 120 -140 68 -333 158 -429 199 -176 75 -450 180 -455 175 -2 -2
-46 -134 -99 -294 -158 -483 -211 -717 -223 -995 l-6 -146 36 -39 c19 -21 37
-37 39 -34 3 3 17 66 32 140 89 437 249 1117 266 1134 19 19 351 -59 475 -111
69 -29 375 -202 550 -311 321 -200 573 -410 762 -637 l42 -50 1 31 c0 48 -35
172 -72 254 -19 41 -76 147 -126 236 -90 161 -132 249 -158 334 -8 25 -14 46
-14 48 0 6 66 27 250 78 l195 54 93 -26 c50 -15 92 -29 91 -33 0 -3 -47 -46
-105 -94 l-104 -89 42 -30 c176 -128 429 -288 542 -343 195 -95 187 -97 121
35 -31 62 -118 216 -194 344 -177 297 -246 426 -229 426 33 0 182 -59 307
-121 165 -82 339 -197 646 -425 275 -205 403 -292 549 -373 61 -33 113 -62
117 -63 14 -5 202 -342 319 -573 249 -491 390 -897 451 -1297 28 -186 31 -509
6 -668 -40 -248 -147 -564 -287 -847 -389 -785 -1181 -1403 -2280 -1781 -198
-68 -288 -88 -475 -108 -194 -21 -571 -23 -735 -5 -225 24 -452 78 -638 151
-126 49 -198 85 -340 171 -184 112 -249 164 -487 384 -189 175 -256 233 -347
298 -80 57 -207 132 -213 125 -2 -2 70 -120 160 -263 128 -201 162 -261 151
-267 -31 -17 -286 -77 -379 -88 -148 -19 -368 -8 -488 23 -190 50 -301 117
-464 282 -203 206 -340 464 -404 760 -26 116 -41 303 -34 396 5 65 6 67 45 89
22 12 110 69 195 126 86 57 157 104 159 104 2 0 36 -48 75 -108 114 -170 240
-335 249 -326 18 20 93 965 110 1379 10 261 21 381 40 431 21 56 83 104 134
104 21 0 27 -7 36 -42 31 -120 85 -317 117 -426 l36 -124 19 49 c10 26 52 149
94 273 l74 225 -22 17 c-13 9 -61 45 -107 80 l-84 63 -54 174 -54 173 45 68
c72 109 190 243 287 327 104 90 119 100 119 80 0 -57 -93 -428 -164 -659 -25
-80 -46 -149 -46 -152 0 -3 27 -19 59 -36 l59 -29 31 84 c35 97 64 208 116
450 43 198 81 318 131 417 44 88 115 191 124 181 10 -10 83 -199 220 -566 61
-165 119 -317 129 -340 l17 -40 53 134 c53 132 131 416 131 472 0 32 -131 271
-141 259 -3 -4 -23 -74 -44 -155 -24 -93 -41 -143 -47 -135 -21 33 -68 171
-77 228 -21 130 33 226 148 265 29 9 51 18 49 20 -2 1 -51 23 -110 48 -111 47
-236 116 -256 140 -7 8 -16 93 -22 213 -11 202 -36 422 -51 438 -4 5 -23 -22
-42 -60 -76 -151 -122 -318 -172 -619 l-33 -200 -149 -145 c-143 -140 -242
-219 -368 -295 -33 -19 -64 -34 -69 -32 -14 5 -22 54 -40 254 -9 93 -23 197
-31 232 -17 72 -75 188 -110 221 l-23 21 -26 -113 c-14 -62 -31 -140 -36 -173
-5 -33 -10 -338 -11 -685 -3 -1057 -21 -1396 -100 -1902 -12 -76 -25 -136 -29
-133 -12 7 -122 311 -175 479 -117 378 -191 745 -227 1121 -3 28 -8 23 -85
-80 -96 -128 -94 -116 -63 -325 24 -161 72 -357 173 -695 90 -303 112 -384
105 -390 -5 -5 -207 40 -213 47 -2 2 -21 39 -42 83 -54 108 -98 222 -189 487
-42 122 -89 256 -106 297 -77 195 -118 435 -118 694 0 351 65 696 225 1198 81
253 173 423 394 732 217 303 265 363 410 507 212 210 441 378 921 675 584 360
1141 542 1855 605 178 15 708 4 900 -19z m1419 -1397 c11 -16 74 -94 140 -174
136 -166 199 -256 248 -355 35 -70 73 -173 67 -180 -6 -6 -656 434 -764 517
-55 42 -136 107 -180 145 l-79 68 44 7 c25 3 148 5 274 4 l228 -2 22 -30z
m-1729 -69 c103 -60 91 -185 -17 -185 -49 0 -86 19 -127 65 -28 32 -32 43 -29
83 2 38 8 49 28 60 33 17 94 7 145 -23z m2613 -601 c99 -19 208 -71 268 -126
67 -61 213 -287 299 -463 122 -248 158 -386 159 -595 0 -108 -5 -152 -23 -220
-12 -47 -26 -89 -31 -94 -14 -14 -74 38 -117 102 -22 32 -68 124 -102 203
-111 252 -171 380 -259 544 -75 142 -302 547 -354 633 l-20 32 52 0 c28 0 86
-7 128 -16z m1313 -4231 c26 -7 53 -215 63 -472 l4 -124 -66 6 c-37 4 -111 10
-165 13 -65 5 -100 11 -104 20 -2 7 16 146 41 309 25 163 46 300 46 305 0 5
37 -4 83 -21 45 -17 89 -33 98 -36z m-933 -33 c27 -47 82 -128 121 -181 39
-53 71 -99 71 -102 0 -3 36 -82 80 -176 104 -222 132 -315 134 -446 2 -163
-50 -281 -179 -410 -90 -91 -181 -143 -300 -171 -80 -18 -241 -14 -357 11
-211 44 -405 227 -582 546 l-37 67 133 100 c150 112 279 222 417 356 52 50 86
78 76 61 -11 -16 -53 -84 -95 -150 -42 -66 -100 -162 -128 -213 l-52 -92 73
-98 c129 -170 202 -219 310 -209 70 6 123 38 173 105 92 119 63 277 -97 539
-40 65 -82 136 -95 158 l-23 40 152 177 c83 98 152 176 153 175 1 -1 24 -40
52 -87z"/>
<path d="M6913 5385 c-122 -34 -212 -96 -272 -186 -135 -202 -126 -472 21
-619 82 -82 263 -150 397 -150 253 1 434 134 470 345 6 33 16 83 21 110 50
238 -203 496 -500 511 -57 3 -102 -1 -137 -11z"/>
<path d="M4005 3846 c-127 -29 -198 -68 -268 -145 -124 -139 -136 -406 -27
-621 101 -201 411 -259 680 -128 179 87 287 253 266 409 -10 76 -63 232 -96
281 -86 129 -230 205 -405 214 -56 2 -113 -1 -150 -10z"/>
<path d="M7110 2161 c-146 -65 -241 -118 -580 -321 -162 -98 -327 -196 -367
-219 -40 -23 -84 -57 -99 -76 -26 -35 -59 -124 -48 -134 10 -10 418 202 644
334 417 244 490 299 537 401 14 30 23 57 22 59 -2 2 -51 -18 -109 -44z"/>
<path d="M2150 2114 c-64 -36 -80 -53 -106 -109 -18 -39 -24 -67 -24 -125 0
-100 20 -173 81 -300 41 -85 52 -102 60 -87 6 9 14 95 18 190 9 184 21 232 62
261 27 19 73 21 118 5 31 -11 31 -12 31 -80 0 -274 164 -565 375 -665 61 -29
209 -63 222 -50 2 2 30 90 63 196 l59 194 -29 62 c-126 279 -419 478 -770 524
-105 13 -110 13 -160 -16z m417 -225 c250 -143 383 -353 343 -543 -6 -31 -18
-60 -25 -63 -25 -9 -135 59 -197 121 -100 101 -164 258 -183 449 -4 37 -4 67
0 67 4 0 32 -14 62 -31z"/>
<path d="M1480 9921 c-93 -24 -153 -50 -225 -96 -126 -80 -193 -166 -256 -325
-64 -163 -54 -276 40 -455 26 -49 69 -123 95 -163 43 -66 49 -72 66 -60 10 7
93 76 184 153 105 90 163 145 160 155 -13 49 -23 163 -17 208 8 76 38 116 88
120 22 2 55 -4 77 -14 46 -21 58 -54 58 -164 0 -88 -18 -162 -59 -244 l-29
-60 120 -158 121 -158 123 65 c68 36 125 65 129 65 3 0 -8 -24 -24 -52 -107
-194 -21 -418 195 -508 70 -29 86 -32 154 -28 97 6 178 47 255 129 132 143
125 322 -19 462 -120 117 -341 136 -520 45 l-39 -20 31 40 c83 105 109 218
114 497 l3 190 -33 69 c-62 131 -202 245 -367 299 -91 29 -324 33 -425 8z"/>
<path d="M9875 8060 c-110 -23 -684 -130 -693 -130 -12 0 56 -64 158 -150 98
-81 647 -500 656 -500 2 0 4 44 4 99 l0 98 -62 39 c-137 84 -202 169 -203 265
0 32 3 60 6 63 3 3 54 1 112 -6 59 -6 110 -9 113 -5 5 5 33 197 34 235 0 15
-13 14 -125 -8z"/>
<path d="M9874 2626 c-65 -29 -82 -126 -38 -214 28 -57 89 -102 137 -102 l27
0 0 154 c0 85 -4 157 -8 160 -23 14 -90 15 -118 2z"/>
</g>
</svg>
